<mxfile host="app.diagrams.net" modified="2021-05-11T07:14:00.087Z" agent="5.0 (Macintosh; Intel Mac OS X 10_15_7) AppleWebKit/537.36 (KHTML, like Gecko) Chrome/90.0.4430.93 Safari/537.36" etag="HO8ObYHxQH3RUpSEsjMy" version="14.6.11" type="github">
  <diagram id="FcLilYsq6Y_q9OFdpURN" name="第 1 页">
    <mxGraphModel dx="1881" dy="763" grid="1" gridSize="10" guides="1" tooltips="1" connect="1" arrows="1" fold="1" page="1" pageScale="1" pageWidth="827" pageHeight="1169" math="0" shadow="0">
      <root>
        <mxCell id="0" />
        <mxCell id="1" parent="0" />
        <mxCell id="PfvjdjHlQWh4K9_MswtJ-8" value="" style="edgeStyle=orthogonalEdgeStyle;rounded=0;orthogonalLoop=1;jettySize=auto;html=1;" parent="1" source="PfvjdjHlQWh4K9_MswtJ-1" target="PfvjdjHlQWh4K9_MswtJ-7" edge="1">
          <mxGeometry relative="1" as="geometry" />
        </mxCell>
        <mxCell id="PfvjdjHlQWh4K9_MswtJ-1" value="2月份订单" style="rounded=0;whiteSpace=wrap;html=1;" parent="1" vertex="1">
          <mxGeometry x="120" y="130" width="120" height="60" as="geometry" />
        </mxCell>
        <mxCell id="PfvjdjHlQWh4K9_MswtJ-2" value="3月份订单" style="rounded=0;whiteSpace=wrap;html=1;" parent="1" vertex="1">
          <mxGeometry x="120" y="210" width="120" height="60" as="geometry" />
        </mxCell>
        <mxCell id="PfvjdjHlQWh4K9_MswtJ-6" value="" style="group" parent="1" vertex="1" connectable="0">
          <mxGeometry x="840" y="140" width="145" height="200" as="geometry" />
        </mxCell>
        <mxCell id="PfvjdjHlQWh4K9_MswtJ-9" value="" style="rounded=0;whiteSpace=wrap;html=1;fillColor=none;dashed=1;" parent="PfvjdjHlQWh4K9_MswtJ-6" vertex="1">
          <mxGeometry x="-25" y="-20" width="170" height="220" as="geometry" />
        </mxCell>
        <mxCell id="PfvjdjHlQWh4K9_MswtJ-3" value="2月订单费用" style="rounded=0;whiteSpace=wrap;html=1;" parent="PfvjdjHlQWh4K9_MswtJ-6" vertex="1">
          <mxGeometry y="60" width="120" height="60" as="geometry" />
        </mxCell>
        <mxCell id="PfvjdjHlQWh4K9_MswtJ-4" value="3月订单费用" style="rounded=0;whiteSpace=wrap;html=1;" parent="PfvjdjHlQWh4K9_MswtJ-6" vertex="1">
          <mxGeometry y="120" width="120" height="60" as="geometry" />
        </mxCell>
        <mxCell id="PfvjdjHlQWh4K9_MswtJ-5" value="1月订单费用" style="rounded=0;whiteSpace=wrap;html=1;" parent="PfvjdjHlQWh4K9_MswtJ-6" vertex="1">
          <mxGeometry width="120" height="60" as="geometry" />
        </mxCell>
        <mxCell id="PfvjdjHlQWh4K9_MswtJ-7" value="应收费用" style="rounded=0;whiteSpace=wrap;html=1;" parent="1" vertex="1">
          <mxGeometry x="320" y="135" width="90" height="50" as="geometry" />
        </mxCell>
        <mxCell id="PfvjdjHlQWh4K9_MswtJ-12" value="" style="edgeStyle=orthogonalEdgeStyle;rounded=0;orthogonalLoop=1;jettySize=auto;html=1;" parent="1" source="PfvjdjHlQWh4K9_MswtJ-10" target="PfvjdjHlQWh4K9_MswtJ-11" edge="1">
          <mxGeometry relative="1" as="geometry" />
        </mxCell>
        <mxCell id="PfvjdjHlQWh4K9_MswtJ-10" value="开始" style="ellipse;whiteSpace=wrap;html=1;" parent="1" vertex="1">
          <mxGeometry x="620" y="390" width="70" height="60" as="geometry" />
        </mxCell>
        <mxCell id="PfvjdjHlQWh4K9_MswtJ-14" value="" style="edgeStyle=orthogonalEdgeStyle;rounded=0;orthogonalLoop=1;jettySize=auto;html=1;" parent="1" source="PfvjdjHlQWh4K9_MswtJ-11" target="PfvjdjHlQWh4K9_MswtJ-13" edge="1">
          <mxGeometry relative="1" as="geometry" />
        </mxCell>
        <mxCell id="PfvjdjHlQWh4K9_MswtJ-11" value="读取一条费用" style="whiteSpace=wrap;html=1;" parent="1" vertex="1">
          <mxGeometry x="597" y="500" width="115" height="50" as="geometry" />
        </mxCell>
        <mxCell id="PfvjdjHlQWh4K9_MswtJ-16" value="" style="edgeStyle=orthogonalEdgeStyle;rounded=0;orthogonalLoop=1;jettySize=auto;html=1;" parent="1" source="PfvjdjHlQWh4K9_MswtJ-13" target="PfvjdjHlQWh4K9_MswtJ-15" edge="1">
          <mxGeometry relative="1" as="geometry" />
        </mxCell>
        <mxCell id="PfvjdjHlQWh4K9_MswtJ-17" value="是" style="edgeLabel;html=1;align=center;verticalAlign=middle;resizable=0;points=[];" parent="PfvjdjHlQWh4K9_MswtJ-16" vertex="1" connectable="0">
          <mxGeometry x="-0.1752" y="4" relative="1" as="geometry">
            <mxPoint as="offset" />
          </mxGeometry>
        </mxCell>
        <mxCell id="PfvjdjHlQWh4K9_MswtJ-22" style="edgeStyle=orthogonalEdgeStyle;rounded=0;orthogonalLoop=1;jettySize=auto;html=1;exitX=1;exitY=0.5;exitDx=0;exitDy=0;entryX=1;entryY=0.5;entryDx=0;entryDy=0;" parent="1" source="PfvjdjHlQWh4K9_MswtJ-13" target="PfvjdjHlQWh4K9_MswtJ-20" edge="1">
          <mxGeometry relative="1" as="geometry">
            <Array as="points">
              <mxPoint x="780" y="648" />
              <mxPoint x="780" y="931" />
            </Array>
          </mxGeometry>
        </mxCell>
        <mxCell id="PfvjdjHlQWh4K9_MswtJ-23" value="否" style="edgeLabel;html=1;align=center;verticalAlign=middle;resizable=0;points=[];" parent="PfvjdjHlQWh4K9_MswtJ-22" vertex="1" connectable="0">
          <mxGeometry x="0.0114" y="3" relative="1" as="geometry">
            <mxPoint as="offset" />
          </mxGeometry>
        </mxCell>
        <mxCell id="PfvjdjHlQWh4K9_MswtJ-13" value="箱号是否已经导入？" style="rhombus;whiteSpace=wrap;html=1;" parent="1" vertex="1">
          <mxGeometry x="612.5" y="615" width="85.5" height="65" as="geometry" />
        </mxCell>
        <mxCell id="PfvjdjHlQWh4K9_MswtJ-21" value="" style="edgeStyle=orthogonalEdgeStyle;rounded=0;orthogonalLoop=1;jettySize=auto;html=1;" parent="1" source="PfvjdjHlQWh4K9_MswtJ-15" target="PfvjdjHlQWh4K9_MswtJ-20" edge="1">
          <mxGeometry relative="1" as="geometry" />
        </mxCell>
        <mxCell id="PfvjdjHlQWh4K9_MswtJ-15" value="导入费用" style="whiteSpace=wrap;html=1;" parent="1" vertex="1">
          <mxGeometry x="595.25" y="762.5" width="120" height="60" as="geometry" />
        </mxCell>
        <mxCell id="PfvjdjHlQWh4K9_MswtJ-20" value="结束" style="ellipse;whiteSpace=wrap;html=1;" parent="1" vertex="1">
          <mxGeometry x="622.75" y="902.5" width="65.25" height="57.5" as="geometry" />
        </mxCell>
        <mxCell id="PfvjdjHlQWh4K9_MswtJ-24" value="来源导入" style="rounded=0;whiteSpace=wrap;html=1;" parent="1" vertex="1">
          <mxGeometry x="530" y="130" width="120" height="60" as="geometry" />
        </mxCell>
        <mxCell id="PfvjdjHlQWh4K9_MswtJ-25" value="" style="rounded=0;whiteSpace=wrap;html=1;fillColor=none;dashed=1;" parent="1" vertex="1">
          <mxGeometry x="494" y="360" width="333" height="630" as="geometry" />
        </mxCell>
        <mxCell id="PfvjdjHlQWh4K9_MswtJ-26" value="下付费用导入" style="text;html=1;strokeColor=none;fillColor=none;align=center;verticalAlign=middle;whiteSpace=wrap;rounded=0;dashed=1;" parent="1" vertex="1">
          <mxGeometry x="530" y="390" width="40" height="20" as="geometry" />
        </mxCell>
        <mxCell id="PfvjdjHlQWh4K9_MswtJ-31" style="edgeStyle=orthogonalEdgeStyle;rounded=0;orthogonalLoop=1;jettySize=auto;html=1;entryX=0.5;entryY=0;entryDx=0;entryDy=0;" parent="1" source="PfvjdjHlQWh4K9_MswtJ-29" target="PfvjdjHlQWh4K9_MswtJ-30" edge="1">
          <mxGeometry relative="1" as="geometry" />
        </mxCell>
        <mxCell id="PfvjdjHlQWh4K9_MswtJ-29" value="订单" style="rounded=0;whiteSpace=wrap;html=1;" parent="1" vertex="1">
          <mxGeometry x="90" y="430" width="90" height="60" as="geometry" />
        </mxCell>
        <mxCell id="PfvjdjHlQWh4K9_MswtJ-34" value="" style="edgeStyle=orthogonalEdgeStyle;rounded=0;orthogonalLoop=1;jettySize=auto;html=1;" parent="1" source="PfvjdjHlQWh4K9_MswtJ-30" target="PfvjdjHlQWh4K9_MswtJ-33" edge="1">
          <mxGeometry relative="1" as="geometry" />
        </mxCell>
        <mxCell id="wWmKfb7gu4crRV88PLqg-2" style="edgeStyle=orthogonalEdgeStyle;rounded=0;orthogonalLoop=1;jettySize=auto;html=1;exitX=0.5;exitY=1;exitDx=0;exitDy=0;" edge="1" parent="1" source="PfvjdjHlQWh4K9_MswtJ-30">
          <mxGeometry relative="1" as="geometry">
            <mxPoint x="270" y="700" as="targetPoint" />
          </mxGeometry>
        </mxCell>
        <mxCell id="PfvjdjHlQWh4K9_MswtJ-30" value="箱子" style="rounded=0;whiteSpace=wrap;html=1;" parent="1" vertex="1">
          <mxGeometry x="90" y="550" width="90" height="60" as="geometry" />
        </mxCell>
        <mxCell id="PfvjdjHlQWh4K9_MswtJ-33" value="应收费用" style="whiteSpace=wrap;html=1;rounded=0;" parent="1" vertex="1">
          <mxGeometry x="20" y="702.5" width="120" height="60" as="geometry" />
        </mxCell>
        <mxCell id="wWmKfb7gu4crRV88PLqg-1" value="应付" style="whiteSpace=wrap;html=1;rounded=0;dashed=1;" vertex="1" parent="1">
          <mxGeometry x="210" y="702.5" width="120" height="60" as="geometry" />
        </mxCell>
      </root>
    </mxGraphModel>
  </diagram>
</mxfile>
